<svg width="779" height="684" viewBox="0 0 779 684" fill="none" xmlns="http://www.w3.org/2000/svg">
<path d="M270.762 324.717C270.762 316.477 269.143 308.532 265.906 300.881C262.816 293.083 258.549 286.241 253.105 280.355C247.661 274.323 241.261 269.541 233.904 266.01C226.695 262.331 218.97 260.492 210.73 260.492C202.491 260.492 194.693 261.89 187.336 264.686C180.126 267.481 173.799 271.601 168.355 277.045C163.059 282.489 158.865 289.257 155.775 297.35C152.686 305.295 151.141 314.417 151.141 324.717C151.141 334.575 152.686 343.477 155.775 351.422C158.865 359.22 163.059 365.915 168.355 371.506C173.799 377.097 180.126 381.438 187.336 384.527C194.693 387.47 202.491 388.941 210.73 388.941C218.97 388.941 226.695 387.176 233.904 383.645C241.261 379.966 247.661 375.184 253.105 369.299C258.549 363.266 262.816 356.424 265.906 348.773C269.143 340.975 270.762 332.956 270.762 324.717ZM331.455 415.205C331.455 431.831 328.292 447.428 321.965 461.994C315.638 476.561 306.957 489.288 295.922 500.176C285.034 511.064 272.233 519.671 257.52 525.998C242.953 532.325 227.357 535.488 210.73 535.488L180.494 535.047V474.795L210.289 475.236C219.706 475.236 227.725 473.986 234.346 471.484C240.967 469.13 246.558 465.82 251.119 461.553C255.68 457.433 259.285 452.651 261.934 447.207C264.729 441.763 266.936 436.025 268.555 429.992C266.201 433.818 262.816 436.981 258.402 439.482C253.988 441.837 249.059 443.749 243.615 445.221C238.318 446.839 232.727 447.943 226.842 448.531C221.104 449.12 215.733 449.414 210.73 449.414C194.104 449.414 178.434 446.545 163.721 440.807C149.154 435.068 136.354 426.902 125.318 416.309C114.43 405.568 105.823 392.473 99.4961 377.023C93.1693 361.574 90.0059 344.139 90.0059 324.717C90.0059 306.913 93.1693 290.361 99.4961 275.059C105.823 259.757 114.43 246.514 125.318 235.332C136.354 224.15 149.154 215.395 163.721 209.068C178.434 202.742 194.104 199.578 210.73 199.578C218.382 199.578 225.959 200.535 233.463 202.447C240.967 204.36 248.25 207.008 255.312 210.393C262.375 213.777 269.07 217.749 275.396 222.311C281.87 226.872 287.903 231.801 293.494 237.098L316.889 209.068H331.455V415.205ZM678.18 445H618.148V294.922C618.148 290.802 617.339 286.903 615.721 283.225C614.249 279.546 612.116 276.309 609.32 273.514C606.525 270.718 603.288 268.585 599.609 267.113C595.931 265.495 592.032 264.686 587.912 264.686C583.792 264.686 579.893 265.495 576.215 267.113C572.684 268.585 569.52 270.718 566.725 273.514C564.076 276.309 561.943 279.546 560.324 283.225C558.853 286.903 558.117 290.802 558.117 294.922V445H497.865V294.922C497.865 290.802 497.056 286.903 495.438 283.225C493.966 279.546 491.833 276.309 489.037 273.514C486.242 270.718 483.005 268.585 479.326 267.113C475.648 265.495 471.749 264.686 467.629 264.686C463.509 264.686 459.61 265.495 455.932 267.113C452.4 268.585 449.237 270.718 446.441 273.514C443.793 276.309 441.66 279.546 440.041 283.225C438.57 286.903 437.834 290.802 437.834 294.922V445H377.582V208.627H392.148L408.48 226.725C416.867 219.662 426.063 214.218 436.068 210.393C446.221 206.42 456.741 204.434 467.629 204.434C478.664 204.434 489.405 206.493 499.852 210.613C510.445 214.733 519.715 221.869 527.66 232.021C531.339 227.019 535.532 222.752 540.24 219.221C544.949 215.689 549.878 212.82 555.027 210.613C560.324 208.406 565.768 206.861 571.359 205.979C576.951 204.949 582.468 204.434 587.912 204.434C600.419 204.434 612.116 206.788 623.004 211.496C634.039 216.204 643.603 222.678 651.695 230.918C659.935 239.01 666.409 248.574 671.117 259.609C675.826 270.645 678.18 282.415 678.18 294.922V445Z" fill="#5CC737"/>
<path d="M265.906 300.881L261.258 302.723L261.279 302.776L261.301 302.829L265.906 300.881ZM253.105 280.355L249.394 283.705L249.414 283.728L249.435 283.751L253.105 280.355ZM233.904 266.01L231.632 270.464L231.686 270.491L231.741 270.517L233.904 266.01ZM187.336 264.686L185.56 260.012L185.544 260.018L185.528 260.024L187.336 264.686ZM168.355 277.045L164.82 273.509L164.796 273.534L164.772 273.558L168.355 277.045ZM155.775 297.35L160.435 299.162L160.441 299.147L160.446 299.133L155.775 297.35ZM155.775 351.422L151.115 353.234L151.121 353.249L151.127 353.264L155.775 351.422ZM168.355 371.506L164.726 374.945L164.749 374.969L164.773 374.994L168.355 371.506ZM187.336 384.527L185.366 389.123L185.422 389.147L185.479 389.17L187.336 384.527ZM233.904 383.645L236.104 388.135L236.122 388.126L236.14 388.117L233.904 383.645ZM253.105 369.299L256.776 372.694L256.797 372.671L256.817 372.649L253.105 369.299ZM265.906 348.773L261.288 346.857L261.279 346.879L261.27 346.901L265.906 348.773ZM295.922 500.176L292.41 496.617L292.398 496.628L292.386 496.64L295.922 500.176ZM257.52 525.998L255.544 521.405L255.536 521.408L255.528 521.412L257.52 525.998ZM210.73 535.488L210.657 540.488L210.694 540.488H210.73V535.488ZM180.494 535.047H175.494V539.974L180.421 540.046L180.494 535.047ZM180.494 474.795L180.568 469.795L175.494 469.72V474.795H180.494ZM210.289 475.236L210.215 480.236L210.252 480.236H210.289V475.236ZM234.346 471.484L232.671 466.773L232.625 466.79L232.579 466.807L234.346 471.484ZM251.119 461.553L247.768 457.842L247.735 457.872L247.703 457.901L251.119 461.553ZM261.934 447.207L257.486 444.923L257.461 444.971L257.437 445.02L261.934 447.207ZM268.555 429.992L273.384 431.288L264.296 427.372L268.555 429.992ZM258.402 439.482L260.755 443.894L260.812 443.864L260.867 443.833L258.402 439.482ZM243.615 445.221L242.311 440.394L242.232 440.415L242.154 440.439L243.615 445.221ZM226.842 448.531L226.344 443.556L226.332 443.557L226.842 448.531ZM163.721 440.807L161.888 445.459L161.896 445.462L161.904 445.465L163.721 440.807ZM125.318 416.309L121.807 419.868L121.831 419.892L121.856 419.916L125.318 416.309ZM99.4961 275.059L94.8755 273.148L99.4961 275.059ZM125.318 235.332L121.759 231.82L121.748 231.832L121.736 231.844L125.318 235.332ZM163.721 209.068L161.746 204.475L161.737 204.479L161.729 204.482L163.721 209.068ZM275.396 222.311L272.472 226.366L272.495 226.382L272.517 226.398L275.396 222.311ZM293.494 237.098L290.055 240.727L293.921 244.389L297.333 240.302L293.494 237.098ZM316.889 209.068V204.068H314.549L313.05 205.864L316.889 209.068ZM331.455 209.068H336.455V204.068H331.455V209.068ZM275.762 324.717C275.762 315.802 274.007 307.195 270.511 298.933L261.301 302.829C264.28 309.869 265.762 317.152 265.762 324.717H275.762ZM270.555 299.039C267.248 290.694 262.658 283.319 256.776 276.96L249.435 283.751C254.441 289.162 258.385 295.471 261.258 302.723L270.555 299.039ZM256.817 277.006C250.936 270.488 244.009 265.314 236.068 261.502L231.741 270.517C238.513 273.768 244.387 278.158 249.394 283.705L256.817 277.006ZM236.177 261.556C228.25 257.512 219.745 255.492 210.73 255.492V265.492C218.195 265.492 225.139 267.151 231.632 270.464L236.177 261.556ZM210.73 255.492C201.913 255.492 193.51 256.99 185.56 260.012L189.112 269.359C195.875 266.79 203.069 265.492 210.73 265.492V255.492ZM185.528 260.024C177.674 263.069 170.758 267.572 164.82 273.509L171.891 280.58C176.841 275.63 182.579 271.893 189.144 269.347L185.528 260.024ZM164.772 273.558C158.938 279.554 154.403 286.927 151.104 295.566L160.446 299.133C163.327 291.588 167.179 285.424 171.939 280.532L164.772 273.558ZM151.115 295.537C147.759 304.167 146.141 313.923 146.141 324.717H156.141C156.141 314.912 157.612 306.423 160.435 299.162L151.115 295.537ZM146.141 324.717C146.141 335.099 147.769 344.628 151.115 353.234L160.435 349.61C157.602 342.325 156.141 334.051 156.141 324.717H146.141ZM151.127 353.264C154.431 361.601 158.953 368.851 164.726 374.945L171.985 368.067C167.164 362.978 163.3 356.839 160.424 349.58L151.127 353.264ZM164.773 374.994C170.679 381.059 177.555 385.775 185.366 389.123L189.306 379.932C182.698 377.1 176.92 373.135 171.938 368.018L164.773 374.994ZM185.479 389.17C193.45 392.358 201.881 393.941 210.73 393.941V383.941C203.101 383.941 195.936 382.582 189.193 379.885L185.479 389.17ZM210.73 393.941C219.712 393.941 228.191 392.01 236.104 388.135L231.705 379.154C225.198 382.341 218.228 383.941 210.73 383.941V393.941ZM236.14 388.117C244.022 384.176 250.912 379.033 256.776 372.694L249.435 365.904C244.411 371.335 238.5 375.756 231.668 379.172L236.14 388.117ZM256.817 372.649C262.66 366.175 267.237 358.831 270.542 350.646L261.27 346.901C258.396 354.018 254.439 360.358 249.394 365.949L256.817 372.649ZM270.524 350.69C274.007 342.3 275.762 333.631 275.762 324.717H265.762C265.762 332.282 264.279 339.651 261.288 346.857L270.524 350.69ZM326.455 415.205C326.455 431.179 323.42 446.094 317.379 460.002L326.551 463.986C333.164 448.762 336.455 432.484 336.455 415.205H326.455ZM317.379 460.002C311.3 473.997 302.979 486.189 292.41 496.617L299.434 503.735C310.935 492.387 319.976 479.124 326.551 463.986L317.379 460.002ZM292.386 496.64C281.965 507.062 269.699 515.318 255.544 521.405L259.495 530.591C274.767 524.024 288.103 515.066 299.457 503.711L292.386 496.64ZM255.528 521.412C241.619 527.453 226.704 530.488 210.73 530.488V540.488C228.009 540.488 244.287 537.197 259.511 530.584L255.528 521.412ZM210.803 530.489L180.567 530.047L180.421 540.046L210.657 540.488L210.803 530.489ZM185.494 535.047V474.795H175.494V535.047H185.494ZM180.42 479.794L210.215 480.236L210.363 470.237L180.568 469.795L180.42 479.794ZM210.289 480.236C220.122 480.236 228.774 478.934 236.113 476.162L232.579 466.807C226.675 469.037 219.29 470.236 210.289 470.236V480.236ZM236.021 476.195C243.208 473.64 249.413 469.995 254.535 465.204L247.703 457.901C243.703 461.644 238.726 464.62 232.671 466.773L236.021 476.195ZM254.471 465.263C259.5 460.721 263.497 455.424 266.43 449.394L257.437 445.02C255.074 449.878 251.861 454.145 247.768 457.842L254.471 465.263ZM266.381 449.491C269.342 443.726 271.676 437.655 273.384 431.288L263.725 428.697C262.197 434.394 260.116 439.8 257.486 444.923L266.381 449.491ZM264.296 427.372C262.439 430.39 259.714 432.992 255.937 435.132L260.867 443.833C265.919 440.97 269.962 437.246 272.813 432.613L264.296 427.372ZM256.049 435.071C252.007 437.227 247.436 439.009 242.311 440.394L244.92 450.048C250.682 448.49 255.97 446.447 260.755 443.894L256.049 435.071ZM242.154 440.439C237.192 441.955 231.925 442.998 226.344 443.556L227.339 453.506C233.53 452.887 239.445 451.723 245.076 450.002L242.154 440.439ZM226.332 443.557C220.738 444.131 215.539 444.414 210.73 444.414V454.414C215.927 454.414 221.469 454.109 227.352 453.505L226.332 443.557ZM210.73 444.414C194.692 444.414 179.642 441.649 165.537 436.148L161.904 445.465C177.227 451.441 193.516 454.414 210.73 454.414V444.414ZM165.553 436.155C151.579 430.649 139.335 422.833 128.781 412.702L121.856 419.916C133.372 430.971 146.73 439.487 161.888 445.459L165.553 436.155ZM128.83 412.749C118.465 402.524 110.218 390.011 104.123 375.129L94.8691 378.918C101.428 394.934 110.396 408.611 121.807 419.868L128.83 412.749ZM104.123 375.129C98.0794 360.371 95.0059 343.594 95.0059 324.717H85.0059C85.0059 344.684 88.2591 362.778 94.8691 378.918L104.123 375.129ZM95.0059 324.717C95.0059 307.519 98.0587 291.621 104.117 276.969L94.8755 273.148C88.2798 289.1 85.0059 306.308 85.0059 324.717H95.0059ZM104.117 276.969C110.216 262.218 118.482 249.52 128.901 238.82L121.736 231.844C110.378 243.509 101.43 257.295 94.8755 273.148L104.117 276.969ZM128.877 238.844C139.459 228.122 151.726 219.73 165.713 213.654L161.729 204.482C146.583 211.061 133.248 220.178 121.759 231.82L128.877 238.844ZM165.696 213.662C179.762 207.613 194.757 204.578 210.73 204.578V194.578C193.451 194.578 177.107 197.87 161.746 204.475L165.696 213.662ZM210.73 204.578C217.96 204.578 225.123 205.481 232.228 207.292L234.698 197.602C226.795 195.588 218.803 194.578 210.73 194.578V204.578ZM232.228 207.292C239.409 209.123 246.383 211.658 253.152 214.902L257.473 205.883C250.117 202.359 242.524 199.597 234.698 197.602L232.228 207.292ZM253.152 214.902C259.948 218.158 266.387 221.979 272.472 226.366L278.32 218.255C271.752 213.519 264.802 209.395 257.473 205.883L253.152 214.902ZM272.517 226.398C278.799 230.824 284.644 235.601 290.055 240.727L296.933 233.468C291.162 228.001 284.942 222.919 278.276 218.223L272.517 226.398ZM297.333 240.302L320.727 212.272L313.05 205.864L289.656 233.894L297.333 240.302ZM316.889 214.068H331.455V204.068H316.889V214.068ZM326.455 209.068V415.205H336.455V209.068H326.455ZM678.18 445V450H683.18V445H678.18ZM618.148 445H613.148V450H618.148V445ZM615.721 283.225L611.078 285.082L611.11 285.16L611.144 285.238L615.721 283.225ZM599.609 267.113L597.596 271.69L597.673 271.724L597.752 271.756L599.609 267.113ZM576.215 267.113L578.138 271.729L578.183 271.71L578.229 271.69L576.215 267.113ZM566.725 273.514L563.189 269.978L563.141 270.026L563.095 270.075L566.725 273.514ZM560.324 283.225L555.748 281.211L555.713 281.289L555.682 281.368L560.324 283.225ZM558.117 445V450H563.117V445H558.117ZM497.865 445H492.865V450H497.865V445ZM495.438 283.225L490.795 285.082L490.827 285.16L490.861 285.238L495.438 283.225ZM479.326 267.113L477.312 271.69L477.39 271.724L477.469 271.756L479.326 267.113ZM455.932 267.113L457.855 271.729L457.9 271.71L457.945 271.69L455.932 267.113ZM446.441 273.514L442.906 269.978L442.858 270.026L442.812 270.075L446.441 273.514ZM440.041 283.225L435.464 281.211L435.43 281.289L435.399 281.368L440.041 283.225ZM437.834 445V450H442.834V445H437.834ZM377.582 445H372.582V450H377.582V445ZM377.582 208.627V203.627H372.582V208.627H377.582ZM392.148 208.627L395.86 205.277L394.371 203.627H392.148V208.627ZM408.48 226.725L404.769 230.074L408.005 233.661L411.701 230.549L408.48 226.725ZM436.068 210.393L437.854 215.063L437.872 215.056L437.89 215.049L436.068 210.393ZM499.852 210.613L498.017 215.265L498.028 215.269L498.039 215.273L499.852 210.613ZM527.66 232.021L523.723 235.103L527.784 240.293L531.688 234.983L527.66 232.021ZM555.027 210.613L553.104 205.998L553.081 206.008L553.058 206.018L555.027 210.613ZM571.359 205.979L572.139 210.917L572.202 210.907L572.265 210.896L571.359 205.979ZM623.004 211.496L621.019 216.085L621.031 216.09L621.042 216.095L623.004 211.496ZM651.695 230.918L648.128 234.422L648.16 234.454L648.192 234.485L651.695 230.918ZM678.18 440H618.148V450H678.18V440ZM623.148 445V294.922H613.148V445H623.148ZM623.148 294.922C623.148 290.127 622.202 285.54 620.297 281.211L611.144 285.238C612.476 288.266 613.148 291.478 613.148 294.922H623.148ZM620.363 281.368C618.641 277.062 616.131 273.254 612.856 269.978L605.785 277.049C608.101 279.365 609.858 282.031 611.078 285.082L620.363 281.368ZM612.856 269.978C609.58 266.703 605.772 264.193 601.466 262.471L597.752 271.756C600.803 272.976 603.469 274.733 605.785 277.049L612.856 269.978ZM601.623 262.537C597.294 260.632 592.707 259.686 587.912 259.686V269.686C591.356 269.686 594.568 270.358 597.596 271.69L601.623 262.537ZM587.912 259.686C583.117 259.686 578.53 260.632 574.201 262.537L578.229 271.69C581.256 270.358 584.468 269.686 587.912 269.686V259.686ZM574.292 262.498C570.137 264.229 566.431 266.737 563.189 269.978L570.26 277.049C572.61 274.7 575.23 272.94 578.138 271.729L574.292 262.498ZM563.095 270.075C560.034 273.306 557.587 277.03 555.748 281.211L564.901 285.238C566.298 282.063 568.118 279.313 570.354 276.952L563.095 270.075ZM555.682 281.368C553.965 285.66 553.117 290.192 553.117 294.922H563.117C563.117 291.412 563.741 288.146 564.967 285.082L555.682 281.368ZM553.117 294.922V445H563.117V294.922H553.117ZM558.117 440H497.865V450H558.117V440ZM502.865 445V294.922H492.865V445H502.865ZM502.865 294.922C502.865 290.127 501.919 285.54 500.014 281.211L490.861 285.238C492.193 288.266 492.865 291.478 492.865 294.922H502.865ZM500.08 281.368C498.358 277.062 495.848 273.254 492.573 269.978L485.502 277.049C487.817 279.365 489.575 282.031 490.795 285.082L500.08 281.368ZM492.573 269.978C489.297 266.703 485.489 264.193 481.183 262.471L477.469 271.756C480.52 272.976 483.186 274.733 485.502 277.049L492.573 269.978ZM481.34 262.537C477.011 260.632 472.424 259.686 467.629 259.686V269.686C471.073 269.686 474.285 270.358 477.312 271.69L481.34 262.537ZM467.629 259.686C462.834 259.686 458.247 260.632 453.918 262.537L457.945 271.69C460.973 270.358 464.185 269.686 467.629 269.686V259.686ZM454.009 262.498C449.854 264.229 446.147 266.737 442.906 269.978L449.977 277.049C452.326 274.7 454.947 272.94 457.855 271.729L454.009 262.498ZM442.812 270.075C439.751 273.306 437.304 277.03 435.464 281.211L444.618 285.238C446.015 282.063 447.835 279.313 450.071 276.952L442.812 270.075ZM435.399 281.368C433.682 285.66 432.834 290.192 432.834 294.922H442.834C442.834 291.412 443.458 288.146 444.683 285.082L435.399 281.368ZM432.834 294.922V445H442.834V294.922H432.834ZM437.834 440H377.582V450H437.834V440ZM382.582 445V208.627H372.582V445H382.582ZM377.582 213.627H392.148V203.627H377.582V213.627ZM388.436 211.977L404.769 230.074L412.192 223.375L395.86 205.277L388.436 211.977ZM411.701 230.549C419.67 223.838 428.383 218.684 437.854 215.063L434.283 205.722C423.743 209.752 414.064 215.486 405.26 222.9L411.701 230.549ZM437.89 215.049C447.463 211.303 457.365 209.434 467.629 209.434V199.434C456.117 199.434 444.979 201.537 434.246 205.736L437.89 215.049ZM467.629 209.434C478.025 209.434 488.144 211.371 498.017 215.265L501.686 205.962C490.666 201.616 479.303 199.434 467.629 199.434V209.434ZM498.039 215.273C507.688 219.026 516.255 225.561 523.723 235.103L531.598 228.94C523.174 218.177 513.203 210.441 501.664 205.953L498.039 215.273ZM531.688 234.983C535.093 230.354 538.945 226.442 543.24 223.221L537.24 215.221C532.119 219.062 527.584 223.684 523.632 229.06L531.688 234.983ZM543.24 223.221C547.646 219.916 552.231 217.251 556.997 215.209L553.058 206.018C547.524 208.389 542.251 211.463 537.24 215.221L543.24 223.221ZM556.95 215.229C561.886 213.172 566.946 211.737 572.139 210.917L570.58 201.04C564.59 201.985 558.763 203.64 553.104 205.998L556.95 215.229ZM572.265 210.896C577.571 209.918 582.785 209.434 587.912 209.434V199.434C582.151 199.434 576.33 199.979 570.454 201.061L572.265 210.896ZM587.912 209.434C599.774 209.434 610.792 211.663 621.019 216.085L624.988 206.907C613.44 201.913 601.064 199.434 587.912 199.434V209.434ZM621.042 216.095C631.499 220.557 640.512 226.667 648.128 234.422L655.263 227.414C646.694 218.69 636.579 211.852 624.966 206.897L621.042 216.095ZM648.192 234.485C655.947 242.102 662.056 251.114 666.518 261.572L675.716 257.647C670.761 246.034 663.923 235.919 655.199 227.351L648.192 234.485ZM666.518 261.572C670.951 271.96 673.18 283.061 673.18 294.922H683.18C683.18 281.77 680.7 269.329 675.716 257.647L666.518 261.572ZM673.18 294.922V445H683.18V294.922H673.18Z" fill="black"/>
</svg>
